# xmcd
#
# Track frame offsets:
#	150
#	8122
#	20872
#	36105
#	55527
#	68422
#	86202
#	97662
#	110742
#	122767
#	148200
#	171645
#
# Disc length: 2563 seconds
#
# Revision: 1
# Processed by: cddbd v1.5.2PL0 Copyright (c) Steve Scherf et al.
# Submitted via: audiograbber 1.83.01
#
DISCID=a20a010c
DTITLE=Core Rhythm - Ronin
DYEAR=2008
DGENRE=Hip Hop
TTITLE0=Morning Breath
TTITLE1=Eagle
TTITLE2=Power of Soul
TTITLE3=Glide
TTITLE4=Ronin
TTITLE5=8 am Bluez
TTITLE6=WHEN! (featuring Hired Gun)
TTITLE7=Apocalypse
TTITLE8=Strange Dayz (featuring Sum Kid)
TTITLE9=Spread Ya Wingz
TTITLE10=Dusk
TTITLE11=The 6th Day (featuring Preachermann)
EXTD=
EXTT0=
EXTT1=
EXTT2=
EXTT3=
EXTT4=
EXTT5=
EXTT6=
EXTT7=
EXTT8=
EXTT9=
EXTT10=
EXTT11=
PLAYORDER=
